<svg xmlns="http://www.w3.org/2000/svg" width="512" height="512">
	<path d="M256,64 C278.091,64 296,81.909 296,104 C296,126.091 278.091,144 256,144 C233.909,144 216,126.091 216,104 C216,81.909 233.909,64 256,64 zM256,216 C278.093,216 296,233.909 296,256 C296,278.091 278.093,296 256,296 C233.908,296 216,278.091 216,256 C216,233.909 233.908,216 256,216 zM256,368 C278.093,368 296,385.907 296,408 C296,430.093 278.093,448 256,448 C233.908,448 216,430.093 216,408 C216,385.907 233.908,368 256,368 z" fill="none" stroke="#000" stroke-width="32" stroke-linecap="round" stroke-linejoin="round"></path>
</svg>