<svg xmlns="http://www.w3.org/2000/svg" width="512" height="512">
	<path d="M128,112 A16,16 0 0,1 128,144 M128,144 A16,16 0 0,1 128,112 M256,112 A16,16 0 0,1 256,144 M256,144 A16,16 0 0,1 256,112 M384,112 A16,16 0 0,1 384,144 M384,144 A16,16 0 0,1 384,112 M128,240 A16,16 0 0,1 128,272 M128,272 A16,16 0 0,1 128,240 M256,240 A16,16 0 0,1 256,272 M256,272 A16,16 0 0,1 256,240 M384,240 A16,16 0 0,1 384,272 M384,272 A16,16 0 0,1 384,240 M128,368 A16,16 0 0,1 128,400 M128,400 A16,16 0 0,1 128,368 M256,368 A16,16 0 0,1 256,400 M256,400 A16,16 0 0,1 256,368 M384,368 A16,16 0 0,1 384,400 M384,400 A16,16 0 0,1 384,368" fill="none" stroke="#000" stroke-width="32" stroke-linecap="round" stroke-linejoin="round"></path>
</svg>