<svg xmlns="http://www.w3.org/2000/svg" width="512" height="512">
	<path d="M256,200 A56,56 0 0,1 256,312 M256,312 A56,56 0 0,1 256,200M256,144 A112,112 0 0,1 256,368 M256,368 A112,112 0 0,1 256,144M212,153 L228,89 L284,89 L300,153M300,359 L284,423 L228,423 L212,359M323.201,166.395 L386.626,148.251 L414.626,196.749 L367.201,242.605M188.799,345.605 L125.374,363.749 L97.3738,315.251 L144.799,269.395M144.799,242.605 L97.3738,196.749 L125.374,148.251 L188.799,166.395M367.201,269.395 L414.626,315.251 L386.626,363.749 L323.201,345.605" stroke="#000" stroke-width="32px" stroke-linecap="round" stroke-linejoin="round" fill="none"></path>
</svg>