<svg xmlns="http://www.w3.org/2000/svg" width="512" height="512">
	<g>
		<path d="M178.082,383.018 Q178.082,504.018 233.082,394.018" stroke="#666" stroke-width="8" fill="#ffffff"></path>
		<path d="M321.082,394.018 Q376.082,504.018 376.082,383.018" stroke="#666" stroke-width="8" fill="#ffffff"></path>
		<path d="M101.082,163.018 Q83.2073,88.7679 184.957,105.268 Q182.207,53.0181 263.332,84.6429 Q305.957,43.3931 365.082,91.5179 Q431.082,57.1431 453.082,163.018 Q516.332,164.393 487.457,249.643 Q521.832,295.018 453.082,339.018 Q457.207,389.893 376.082,383.018 Q354.082,405.018 321.082,394.018 Q277.082,427.018 233.082,394.018 Q201.457,405.018 178.082,383.018 Q102.457,388.518 101.082,339.018 Q-74.9177,251.018 101.082,163.018 z" stroke="#666" stroke-width="8" fill="#ffffff"></path>
		<path d="M79.0823,229.018 C91.2331,229.018 101.082,238.867 101.082,251.018 C101.082,263.17 91.2331,273.018 79.0823,273.018 C66.9314,273.018 57.0823,263.17 57.0823,251.018 C57.0823,238.867 66.9314,229.018 79.0823,229.018 z" stroke="#666" stroke-width="8" fill="#ffffff"></path>
		<path d="M181.835,207.011 C181.835,211.397 175.92,209.175 174.543,207.011 C170.809,201.145 176.184,194.226 181.835,192.429 C191.94,189.212 201.664,197.375 203.708,207.011 C206.708,221.152 195.442,234.01 181.835,236.174 C163.698,239.062 147.616,224.588 145.378,207.011 C142.562,184.891 160.287,165.549 181.835,163.263 C207.93,160.494 230.552,181.492 232.874,207.011 C235.608,237.084 211.324,262.995 181.835,265.34" stroke="#666" stroke-width="8" stroke-linecap="round" stroke-linejoin="round" fill="none" fill-rule="evenodd"></path>
	</g>
</svg>